<?xml version="1.0" standalone="no"?>
<!DOCTYPE svg PUBLIC "-//W3C//DTD SVG 20010904//EN"
 "http://www.w3.org/TR/2001/REC-SVG-20010904/DTD/svg10.dtd">
<svg version="1.0" xmlns="http://www.w3.org/2000/svg"
 width="3488.000000pt" height="860.000000pt" viewBox="0 0 3488.000000 860.000000"
 preserveAspectRatio="xMidYMid meet">

<g transform="translate(0.000000,860.000000) scale(0.100000,-0.100000)"
fill="#000000" stroke="none">
<path d="M1558 8375 c-318 -53 -621 -265 -826 -574 -292 -441 -498 -1146 -578
-1976 -33 -348 -30 -1010 7 -1365 110 -1071 507 -1922 1045 -2247 271 -163
618 -198 920 -92 237 83 448 242 649 493 l79 98 137 -273 138 -274 0 1303 1
1302 105 0 105 0 0 40 0 40 -740 0 -740 0 0 -40 0 -40 115 0 115 0 0 -923 c0
-556 -4 -977 -11 -1058 -30 -387 -132 -574 -314 -574 -138 0 -224 108 -272
338 -16 75 -17 277 -21 2512 -2 1697 0 2472 8 2570 31 398 121 548 349 586
175 29 370 -50 541 -221 177 -177 314 -412 444 -760 78 -207 131 -405 160
-595 13 -81 14 0 15 768 1 471 -1 857 -3 857 -3 0 -91 -97 -196 -216 -106
-118 -193 -214 -195 -212 -2 2 -31 41 -65 88 -261 355 -596 508 -972 445z"/>
<path d="M19246 8299 c-150 -37 -308 -202 -392 -409 -65 -159 -92 -360 -74
-540 34 -343 193 -526 416 -480 84 18 149 54 222 124 161 154 254 369 269 621
18 320 -79 597 -234 670 -44 21 -151 28 -207 14z"/>
<path d="M9850 8249 c-147 -43 -224 -49 -672 -49 l-428 0 0 -35 0 -35 140 0
140 0 0 -2910 0 -2910 -140 0 -140 0 0 -35 0 -35 675 0 675 0 0 35 0 35 -80 0
-80 0 0 1513 0 1512 34 50 c168 250 366 274 440 53 39 -117 39 -123 43 -1646
l4 -1482 -81 0 -81 0 3 -32 3 -33 678 -3 677 -2 0 35 0 35 -140 0 -140 0 0
1178 c0 1194 -6 1486 -35 1691 -54 384 -189 643 -381 733 -59 28 -83 33 -165
36 -253 11 -480 -126 -758 -458 l-96 -115 -3 1448 c-2 1148 -5 1447 -15 1446
-6 -1 -41 -10 -77 -20z"/>
<path d="M14680 8150 l0 -50 190 0 190 0 0 -2880 0 -2880 -190 0 -190 0 0 -50
0 -50 1263 0 c788 0 1296 4 1352 10 411 47 663 304 785 801 100 412 102 994 3
1414 -96 410 -274 684 -530 814 -41 20 -43 24 -43 66 l0 44 80 42 c250 129
392 418 451 914 20 165 17 637 -4 795 -60 438 -167 737 -318 889 -93 93 -211
141 -400 161 -57 6 -600 10 -1366 10 l-1273 0 0 -50z m1995 -77 c55 -29 110
-89 135 -146 63 -142 72 -339 67 -1387 -3 -763 -6 -875 -21 -950 -31 -155 -81
-231 -186 -279 -50 -23 -69 -25 -227 -29 l-173 -5 0 1413 0 1412 183 -4 c164
-3 186 -5 222 -25z m11 -2892 c61 -26 117 -81 139 -135 48 -114 48 -119 52
-1191 5 -1064 1 -1194 -39 -1323 -16 -53 -30 -77 -68 -114 -70 -68 -113 -78
-327 -78 l-173 0 0 1436 0 1436 183 -4 c162 -4 188 -7 233 -27z"/>
<path d="M22740 8150 l0 -50 135 0 c74 0 135 -2 135 -4 0 -2 47 -135 105 -296
l105 -292 0 -1917 c0 -1209 -4 -1966 -10 -2047 -32 -400 -107 -768 -190 -934
-64 -127 -154 -218 -247 -252 -32 -12 -33 -14 -33 -65 l0 -53 526 0 525 0 -3
51 -3 50 -52 18 c-218 74 -375 387 -447 896 -50 347 -49 315 -53 2330 -2 1817
-2 1888 15 1845 10 -25 438 -1203 952 -2617 l934 -2573 313 0 313 0 0 1102 0
1102 -682 1878 -682 1878 -828 0 -828 0 0 -50z"/>
<path d="M25150 8150 l0 -50 55 0 c89 0 160 -33 235 -109 185 -188 275 -555
317 -1296 l7 -140 7 180 c16 411 74 775 158 990 66 170 166 299 269 346 l53
24 -3 50 -3 50 -547 3 -548 2 0 -50z"/>
<path d="M22039 6820 c-50 -26 -137 -125 -178 -202 -30 -56 -30 -60 -7 -33 14
17 25 33 26 38 1 21 19 1 40 -43 22 -47 24 -64 25 -223 0 -149 3 -181 23 -238
46 -137 122 -195 201 -153 135 72 202 430 126 679 -22 73 -71 153 -108 175
-40 25 -101 25 -148 0z"/>
<path d="M33569 6049 c-291 -68 -533 -390 -632 -840 -39 -174 -51 -295 -50
-514 0 -158 5 -224 21 -317 40 -221 135 -464 249 -638 138 -211 366 -432 651
-633 64 -45 136 -101 159 -124 78 -77 113 -178 113 -323 0 -239 -92 -359 -275
-360 -206 0 -425 111 -576 292 -167 200 -272 439 -339 773 l-18 90 -1 -605 -1
-605 65 100 c36 55 86 135 112 177 27 43 51 78 54 78 3 0 19 -19 36 -42 104
-145 258 -276 407 -348 141 -67 212 -84 371 -84 108 0 143 3 205 23 287 88
494 357 584 761 39 175 49 312 43 568 -9 413 -78 667 -243 898 -118 165 -202
259 -594 664 -141 146 -271 288 -290 314 -70 103 -95 231 -66 343 39 156 142
221 302 194 127 -23 254 -94 380 -214 208 -197 331 -452 398 -823 13 -72 14
-27 15 526 l0 605 -32 -37 c-18 -20 -79 -93 -137 -162 -58 -69 -108 -125 -113
-125 -4 -1 -40 33 -80 75 -206 218 -404 325 -595 323 -48 -1 -103 -5 -123 -10z"/>
<path d="M19665 5963 c-22 -8 -87 -26 -145 -40 -104 -26 -110 -26 -562 -30
l-458 -4 0 -30 0 -29 150 0 150 0 0 -1760 0 -1760 -150 0 -150 0 0 -35 0 -35
755 0 755 0 0 35 0 35 -150 0 -150 0 -2 1834 -3 1833 -40 -14z"/>
<path d="M4785 5944 c-154 -48 -229 -54 -687 -54 l-428 0 0 -30 0 -30 140 0
140 0 0 -1760 0 -1760 -140 0 -140 0 0 -35 0 -35 745 0 745 0 0 35 0 35 -150
0 -150 0 0 1123 c0 691 4 1149 10 1192 9 59 58 280 76 338 5 14 -1 17 -40 17
l-46 0 -2 493 -3 493 -70 -22z"/>
<path d="M6879 5936 c-260 -55 -437 -217 -519 -474 -41 -128 -53 -243 -47
-439 4 -136 10 -186 30 -264 48 -182 133 -305 230 -334 84 -25 147 -5 211 66
113 124 175 428 148 721 -24 255 -86 390 -221 476 l-53 34 38 39 c22 22 64 52
94 67 50 25 65 27 170 27 110 0 119 -2 180 -32 122 -60 210 -176 245 -324 28
-121 36 -333 33 -911 l-3 -568 -45 31 c-131 88 -270 141 -426 159 -282 34
-524 -59 -673 -258 -69 -92 -104 -161 -145 -283 -47 -141 -66 -264 -73 -454
-9 -273 30 -484 127 -680 103 -208 244 -342 410 -389 172 -48 322 -18 483 98
60 42 196 175 254 246 23 28 14 24 -42 -23 -142 -117 -221 -126 -302 -34 -76
86 -85 192 -80 867 4 579 6 601 54 695 70 135 218 139 397 11 l66 -47 0 -678
c0 -584 -2 -680 -15 -691 -12 -10 -9 -22 22 -83 53 -106 98 -174 160 -239 133
-139 266 -175 453 -122 85 24 144 59 216 126 91 85 163 197 228 353 l17 39
-24 -22 c-46 -43 -114 -23 -143 43 -5 11 -11 540 -15 1175 -5 1027 -7 1166
-22 1250 -84 466 -353 722 -858 816 -118 22 -472 28 -560 10z"/>
<path d="M12743 5940 c-79 -15 -206 -64 -267 -105 -131 -87 -242 -252 -286
-428 -43 -172 -46 -449 -5 -622 58 -253 182 -391 328 -368 107 16 204 161 246
363 21 99 30 307 20 431 -21 255 -89 403 -220 477 -27 15 -49 32 -49 37 0 17
86 84 138 108 40 19 65 22 162 22 104 0 121 -3 173 -27 74 -35 156 -113 196
-188 79 -148 93 -318 89 -1078 l-3 -543 -63 41 c-174 112 -307 152 -512 153
-150 1 -219 -12 -330 -64 -218 -101 -367 -325 -430 -646 -28 -138 -38 -406
-21 -553 48 -407 256 -723 533 -807 33 -10 90 -16 148 -16 169 0 284 58 460
233 136 134 207 225 94 120 -75 -71 -145 -110 -194 -110 -50 0 -106 35 -136
85 -59 101 -59 103 -59 775 0 557 2 621 18 680 59 216 226 248 445 85 l52 -39
0 -675 c0 -607 -2 -676 -16 -692 -15 -17 -13 -24 26 -96 180 -329 356 -425
626 -342 158 49 294 187 396 405 43 93 46 104 19 80 -39 -36 -102 -18 -134 39
-9 15 -14 326 -18 1165 -6 1184 -7 1214 -49 1385 -23 90 -89 236 -148 322
-126 186 -370 321 -683 379 -99 19 -468 28 -546 14z"/>
<path d="M21045 5933 c-171 -36 -301 -108 -431 -237 -204 -204 -323 -475 -365
-831 -17 -141 -6 -453 19 -570 49 -225 130 -393 272 -564 53 -64 204 -196 223
-196 7 0 53 -21 102 -46 175 -91 334 -125 543 -117 236 10 435 85 626 237 236
188 351 448 376 844 40 657 -195 1128 -688 1376 -45 23 -84 41 -87 40 -3 0
-40 13 -83 29 -42 17 -104 35 -136 41 -83 15 -288 12 -371 -6z m363 -49 c77
-32 124 -103 153 -229 20 -86 20 -1895 1 -2000 -23 -122 -77 -216 -144 -251
-34 -18 -119 -18 -161 0 -41 17 -93 76 -118 134 -47 109 -49 157 -49 1111 0
561 4 920 10 959 16 95 48 171 94 220 63 66 141 87 214 56z"/>
<path d="M27485 5930 c-161 -42 -280 -116 -418 -259 -115 -121 -196 -240 -287
-426 -179 -364 -260 -758 -260 -1268 0 -457 75 -828 235 -1154 180 -370 422
-604 693 -674 394 -100 702 85 990 596 52 92 172 347 172 363 0 4 -33 -56 -73
-133 -188 -364 -391 -587 -597 -655 -216 -72 -363 58 -427 378 -13 63 -16 197
-20 760 l-5 682 602 0 602 0 -7 68 c-71 716 -265 1245 -564 1543 -101 100
-182 151 -290 183 -76 22 -254 21 -346 -4z m346 -41 c80 -25 141 -104 175
-230 27 -102 35 -327 32 -889 l-3 -555 -272 -3 -273 -2 0 644 c0 726 3 765 66
893 60 124 161 176 275 142z"/>
<path d="M5483 5899 c-48 -14 -145 -110 -204 -202 -60 -93 -172 -329 -160
-337 5 -3 21 -30 37 -60 28 -55 28 -56 25 -215 -6 -315 66 -550 201 -658 43
-35 115 -46 171 -28 82 27 181 179 231 353 73 254 75 638 5 873 -43 144 -123
251 -205 274 -45 13 -57 13 -101 0z"/>
<path d="M28870 5860 l0 -30 60 0 c39 0 62 -4 65 -12 3 -7 167 -782 365 -1723
198 -940 367 -1743 376 -1783 l16 -72 236 2 236 3 120 595 120 595 -252 1191
c-139 656 -252 1194 -252 1198 0 3 38 6 85 6 l85 0 0 30 0 30 -630 0 -630 0 0
-30z"/>
<path d="M30330 5860 l0 -30 60 0 c54 0 61 -3 69 -22 4 -13 61 -279 125 -593
64 -313 121 -579 126 -590 6 -11 120 -542 255 -1179 135 -638 248 -1170 251
-1183 l6 -23 234 0 c179 0 236 3 239 13 11 27 235 1143 235 1167 0 14 -115
558 -254 1210 -140 652 -252 1188 -249 1193 2 4 60 7 129 7 l124 0 0 30 0 30
-675 0 -675 0 0 -30z"/>
<path d="M31950 5853 c0 -36 3 -40 56 -67 69 -36 117 -91 159 -181 57 -122 70
-202 70 -440 0 -196 -2 -221 -32 -377 -18 -92 -33 -173 -32 -180 0 -7 18 70
40 172 84 402 134 581 214 772 39 91 101 177 156 216 35 25 39 31 39 75 l0 47
-335 0 -335 0 0 -37z"/>
<path d="M32162 4570 c0 -14 2 -19 5 -12 2 6 2 18 0 25 -3 6 -5 1 -5 -13z"/>
<path d="M32152 4520 c0 -14 2 -19 5 -12 2 6 2 18 0 25 -3 6 -5 1 -5 -13z"/>
<path d="M32142 4470 c0 -14 2 -19 5 -12 2 6 2 18 0 25 -3 6 -5 1 -5 -13z"/>
<path d="M20576 3303 c-144 -195 -238 -424 -288 -703 -20 -117 -17 -472 5
-585 60 -298 185 -518 339 -594 108 -55 155 -57 518 -26 325 27 407 28 525 3
75 -15 169 -63 206 -105 100 -114 145 -363 104 -571 -45 -223 -202 -399 -421
-470 -226 -74 -540 -43 -753 74 -300 165 -487 478 -509 854 l-8 125 -8 -80
c-13 -119 -1 -295 27 -405 48 -187 126 -319 267 -454 74 -70 109 -95 193 -136
134 -66 230 -90 388 -97 360 -16 645 90 871 325 206 214 323 471 385 847 26
157 26 620 0 783 -77 483 -258 727 -592 797 -69 14 -139 16 -510 13 -386 -3
-436 -1 -486 14 -84 26 -147 74 -183 137 -40 73 -47 185 -18 279 11 34 18 62
16 62 -2 0 -33 -39 -68 -87z"/>
<path d="M28616 3145 c-9 -26 -7 -32 5 -12 6 10 9 21 6 23 -2 3 -7 -2 -11 -11z"/>
</g>
</svg>
